<?xml version="1.0" standalone="no"?><!DOCTYPE svg PUBLIC "-//W3C//DTD SVG 1.1//EN" "http://www.w3.org/Graphics/SVG/1.1/DTD/svg11.dtd"><svg t="1589038121609" class="icon" viewBox="0 0 1024 1024" version="1.1" xmlns="http://www.w3.org/2000/svg" p-id="5209" width="48" height="48" xmlns:xlink="http://www.w3.org/1999/xlink"><defs><style type="text/css"></style></defs><path d="M526.848 202.24c-4.096-4.096-9.216-6.144-14.848-6.144s-11.264 2.048-14.848 6.144L342.016 356.864c-8.192 8.192-8.192 21.504 0 30.208 8.192 8.192 21.504 8.192 30.208 0L512 247.296l139.776 139.776c4.096 4.096 9.728 6.144 14.848 6.144 5.632 0 10.752-2.048 14.848-6.144 8.192-8.192 8.192-21.504 0-30.208L526.848 202.24zM116.224 595.968h90.624v231.936h42.496V595.968h90.624v-42.496H115.712v42.496z m458.24-42.496h-112.64c-13.824 0-27.136 5.12-37.376 15.36s-15.36 24.064-15.36 37.376v168.448c0 13.824 5.12 27.136 15.36 37.376s24.064 15.36 37.376 15.36h112.64c13.824 0 27.136-5.12 37.376-15.36s15.36-24.064 15.36-37.376V606.208c0-13.824-5.12-27.136-15.36-37.376s-23.552-15.36-37.376-15.36z m10.752 221.696c0 2.048-0.512 5.12-3.072 7.68s-5.632 3.072-7.68 3.072h-112.64c-2.048 0-5.12-0.512-7.68-3.072s-3.072-5.632-3.072-7.68V606.72c0-2.048 0.512-5.12 3.072-7.68s5.632-3.072 7.68-3.072h112.64c2.048 0 5.12 0.512 7.68 3.072s3.072 5.632 3.072 7.68v168.448z m307.2-205.824c-10.24-10.24-24.064-15.36-37.376-15.36H709.632v274.432h42.496v-120.32H855.04c13.824 0 27.136-5.12 37.376-15.36s15.36-24.064 15.36-37.376v-48.128c0-14.336-5.12-27.648-15.36-37.888z m-27.136 84.992c0 2.048-0.512 5.12-3.072 7.68s-5.632 3.072-7.68 3.072H751.104v-69.12H855.04c2.048 0 5.12 0.512 7.68 3.072s3.072 5.632 3.072 7.68v47.616h-0.512z" fill="currentColor" p-id="5210"></path></svg>
