<?xml version="1.0" standalone="no"?><!DOCTYPE svg PUBLIC "-//W3C//DTD SVG 1.1//EN" "http://www.w3.org/Graphics/SVG/1.1/DTD/svg11.dtd"><svg t="1588952709266" class="icon" viewBox="0 0 1024 1024" version="1.1" xmlns="http://www.w3.org/2000/svg" p-id="2213" width="32" height="32" xmlns:xlink="http://www.w3.org/1999/xlink"><defs><style type="text/css"></style></defs><path d="M947 484.1L530.7 75.9c-12.6-12.4-32.8-12.3-45.3 0.2L73.5 488c-13.4 13.4-13.2 35.1 0.3 48.3l23.9 23.3c13.3 13 34.5 12.9 47.7-0.2l343-341.4c10.8-10.7 28.2-10.7 39 0l343.2 341.6c13.1 13 34.1 13.2 47.4 0.5l28.6-27.3c14-13.1 14.1-35.2 0.4-48.7zM814.3 101.6c0-13.5-10.9-24.4-24.4-24.4H701c-13.5 0-24.4 10.9-24.4 24.4v49.9l137.8 137.8V101.6z" fill="currentColor" p-id="2214"></path><path d="M492.4 280.4l-343.5 339v305.1c0 19.7 16 35.7 35.7 35.7h167.9c19.7 0 35.7-16 35.7-35.7V678.1c0-10.4 8.5-18.9 18.9-18.9h203.3c10.4 0 18.9 8.5 18.9 18.9v246.3c0 19.7 16 35.7 35.7 35.7h166c19.7 0 35.7-16 35.7-35.7V619.3l-338.1-339c-9.8-10-26.1-10-36.2 0.1z" fill="currentColor" p-id="2215"></path></svg>
