<?xml version="1.0" standalone="no"?><!DOCTYPE svg PUBLIC "-//W3C//DTD SVG 1.1//EN" "http://www.w3.org/Graphics/SVG/1.1/DTD/svg11.dtd"><svg t="1589037568821" class="icon" viewBox="0 0 1024 1024" version="1.1" xmlns="http://www.w3.org/2000/svg" p-id="2226" width="48" height="48" xmlns:xlink="http://www.w3.org/1999/xlink"><defs><style type="text/css"></style></defs><path d="M178.3 540.9v-60.3H118v60.3h60.3z m20 284.1h121.3V702.4H198.3V825z m343.1-545.2h-60.7v60.1h60.7v-60.1z m-221.7-81.1H198.3v122.6h121.3V198.7z m362.4 423.4h-60.2v60.1h181v-60.1h-60v-60.9h-60.7v60.9zM541.4 117.8h-60.7V239h60.7V117.8z m-0.3 463.9h60.7v-59.8h60.4v-61.4h-60.7v60.4h-60.4v60.8z m201.8 201.5V723h-60.7v60.1h60.7z m60.4-282.4h-60.7v60.1h60.7v-60.1zM420.1 98.2H97.7V420h322.4V98.2zM380.2 380H138.3V138.8h241.9V380z m463.1 160.8H904v-58.9h-60.7v58.9z m0 302.5h-40v-59.8h-60.7v59.8h-60.5v61.4H904v-59.2h0.1V722.4h-60.7v120.9z m0-161.5H904v-60.1h-60.7v60.1z m-19.9-483.1H702v122.6h121.3V198.7zM601.7 98.2V420h322.4V98.2H601.7zM883.6 380H641.7V138.8h241.9V380zM541.4 722.1h60.4v-58.9h-60.4v-81.4h-60.7v321.4h60.4v0.8h60.7v-60.1h-60.4V722.1zM238.9 541.6h201.7v-61H238.9v61z m302.5-161.3h-61v60.1h61v-60.1zM601.5 843h60.7v-60.1h-60.7V843zM97.6 924.1H420V602.3H97.6v321.8z m40.7-281.2h241.9v241.2H138.3V642.9z" fill="currentColor" p-id="2227"></path></svg>
