<?xml version="1.0" standalone="no"?><!DOCTYPE svg PUBLIC "-//W3C//DTD SVG 1.1//EN" "http://www.w3.org/Graphics/SVG/1.1/DTD/svg11.dtd"><svg t="1591197475143" class="icon" viewBox="0 0 1024 1024" version="1.1" xmlns="http://www.w3.org/2000/svg" p-id="14063" xmlns:xlink="http://www.w3.org/1999/xlink" width="48" height="48"><defs><style type="text/css"></style></defs><path d="M708.412 0H315.588c-42.453 0-77.234 34.781-77.234 77.235v869.53c0 42.454 34.78 77.235 77.234 77.235h392.824c42.453 0 77.234-34.781 77.234-77.235V77.235C785.646 34.78 750.866 0 708.412 0zM458.805 68.028h106.901c9.207 0 16.88 7.672 16.88 16.88 0 9.206-7.673 16.878-16.88 16.878h-106.9c-9.208 0-16.88-7.672-16.88-16.879s7.16-16.879 16.88-16.879zM512 990.242c-28.132 0-51.149-23.017-51.149-51.15s23.017-51.148 51.149-51.148 51.149 23.017 51.149 51.149-23.017 51.149-51.149 51.149z m224.032-134.01H288.991V170.326h447.552l-0.511 685.906z" fill="currentColor" p-id="14064"></path></svg>
