<?xml version="1.0" standalone="no"?><!DOCTYPE svg PUBLIC "-//W3C//DTD SVG 1.1//EN" "http://www.w3.org/Graphics/SVG/1.1/DTD/svg11.dtd"><svg t="1591197882393" class="icon" viewBox="0 0 1024 1024" version="1.1" xmlns="http://www.w3.org/2000/svg" p-id="1771" xmlns:xlink="http://www.w3.org/1999/xlink" width="48" height="48"><defs><style type="text/css"></style></defs><path d="M744.672712 501.765915c-37.611619-7.334036-19.295462-27.629267-19.295462-27.629267s36.796044-60.84681-7.297197-105.065917c-54.656831-54.747905-187.460486 6.970762-187.460486 6.970762-50.718125 15.792685-37.248346-7.187703-30.079062-46.289256 0-46.070268-15.756869-124.08918-150.866033-78.017888-134.962831 46.325072-250.866584 208.571293-250.866584 208.571293C18.211269 568.130392 28.921191 651.451052 28.921191 651.451052c20.113083 183.993524 215.07031 234.492662 366.715079 246.438739C555.16152 910.448828 770.52245 842.739726 835.799152 703.691857 901.073808 564.427046 782.429641 509.317914 744.672712 501.765915L744.672712 501.765915zM407.472853 846.008166c-158.417009 7.441483-286.445918-72.173786-286.445918-178.184215 0-106.083084 128.029932-191.145411 286.445918-198.442608 158.452825-7.334036 286.736537 58.159608 286.736537 163.988912C694.208367 739.344868 565.908282 838.783625 407.472853 846.008166L407.472853 846.008166zM407.472853 846.008166" fill="currentColor" p-id="1772"></path><path d="M375.850645 539.232225C216.544383 557.930075 234.951615 707.542558 234.951615 707.542558s-1.63422 47.376007 42.730197 71.483054c93.195565 50.608631 189.148941 19.968797 237.651608-42.804898C563.838134 673.41325 535.410688 520.680706 375.850645 539.232225L375.850645 539.232225zM335.660294 749.219773c-29.714765 3.485381-53.6939-13.721513-53.6939-38.665625 0-24.831548 21.310352-50.824549 51.027164-53.948703 34.180474-3.26537 56.435337 16.446577 56.435337 41.424458C389.428895 722.861452 365.304452 745.80807 335.660294 749.219773L335.660294 749.219773zM429.582407 668.986427c-10.091846 7.550976-22.472827 6.535857-27.791973-2.542916-5.536087-8.821923-3.466961-22.979364 6.698562-30.423917 11.799744-8.783037 24.108071-6.243191 29.40675 2.579755C443.233312 647.63719 439.438892 661.21544 429.582407 668.986427L429.582407 668.986427zM429.582407 668.986427" fill="currentColor" p-id="1773"></path><path d="M822.255695 436.996772c12.833283 0 23.778566-9.547447 25.594935-21.965268 0.217964-0.905626 0.326435-1.74269 0.326435-2.794649 19.460214-175.352727-143.331429-145.183614-143.331429-145.183614-14.449084 0-26.030863 11.726066-26.030863 26.357298 0 14.377452 11.580756 26.139334 26.030863 26.139334 116.956735-25.922393 91.142813 91.308589 91.142813 91.308589C795.971052 425.3802 807.733956 436.996772 822.255695 436.996772L822.255695 436.996772zM822.255695 436.996772" fill="currentColor" p-id="1774"></path><path d="M803.305087 130.8737c-56.307424-13.214976-114.179482-1.815345-130.408095 1.270946-1.234107 0.145309-2.432399 1.306762-3.576455 1.560542-0.562818 0.109494-0.889253 0.690732-0.889253 0.690732-16.010649 4.538363-27.698852 19.386536-27.698852 36.885072 0 20.912285 16.881482 38.120203 37.97387 38.120203 0 0 20.476357-2.794649 34.381042-8.204869 13.778818-5.591345 130.334417-4.139274 188.242292 93.338828 31.583323 71.158666 13.903661 118.753661 11.688203 126.414131 0 0-7.515161 18.479887-7.515161 36.668131 0 21.020756 16.882506 34.199916 37.830607 34.199916 17.499559 0 32.185027-2.360767 36.485983-32.021298l0.217964 0C1042.227642 252.023944 903.99637 154.436348 803.305087 130.8737L803.305087 130.8737zM803.305087 130.8737" fill="currentColor" p-id="1775"></path></svg>
