<?xml version="1.0" standalone="no"?><!DOCTYPE svg PUBLIC "-//W3C//DTD SVG 1.1//EN" "http://www.w3.org/Graphics/SVG/1.1/DTD/svg11.dtd"><svg t="1591414142273" class="icon" viewBox="0 0 1252 1024" version="1.1" xmlns="http://www.w3.org/2000/svg" p-id="3332" xmlns:xlink="http://www.w3.org/1999/xlink" width="58.6875" height="48"><defs><style type="text/css"></style></defs><path d="M287.140978 313.370548C252.969719 313.370548 225.321719 286.518993 225.321719 253.485511 225.321719 220.376178 252.969719 193.600474 287.140978 193.600474 321.350163 193.600474 349.036089 220.376178 349.036089 253.485511 349.036089 286.518993 321.350163 313.370548 287.140978 313.370548M593.620385 193.600474C627.791644 193.600474 655.439644 220.376178 655.439644 253.485511 655.439644 286.518993 627.791644 313.370548 593.620385 313.370548 559.449126 313.370548 531.801126 286.518993 531.801126 253.485511 531.801126 220.376178 559.449126 193.600474 593.620385 193.600474M857.129719 323.572622C863.387496 323.572622 869.531496 323.6864 875.675496 323.989807 843.210904 147.292919 660.673422 12.011141 440.399644 12.011141 197.142756 12.011141 0.003793 176.913067 0.003793 380.347733 0.003793 499.586844 67.777422 605.665659 172.870163 672.946252 174.235496 673.780622 176.890311 675.487289 176.890311 675.487289L134.337422 808.758993 293.550459 727.673363C293.550459 727.673363 298.518756 729.114548 301.021867 729.835141 344.826311 742.009363 391.702756 748.6464 440.399644 748.6464 450.336237 748.6464 460.196978 748.229215 469.981867 747.698252 460.955496 719.708919 455.9872 690.240474 455.9872 659.823881 455.9872 474.138548 635.642311 323.572622 857.129719 323.572622" fill="currentColor" p-id="3333"></path><path d="M678.741333 554.848711C678.741333 526.93523 702.14163 504.331378 730.965333 504.331378 759.864889 504.331378 783.265185 526.93523 783.265185 554.848711 783.265185 582.800119 759.864889 605.479822 730.965333 605.479822 702.14163 605.479822 678.741333 582.800119 678.741333 554.848711M937.66163 554.848711C937.66163 526.93523 961.024 504.331378 989.88563 504.331378 1018.785185 504.331378 1042.147556 526.93523 1042.147556 554.848711 1042.147556 582.800119 1018.785185 605.479822 989.88563 605.479822 961.024 605.479822 937.66163 582.800119 937.66163 554.848711M488.391111 662.027378C488.391111 833.869748 654.999704 973.2096 860.48237 973.2096 901.632 973.2096 941.226667 967.596563 978.204444 957.280711 980.328296 956.711822 984.500148 955.460267 984.500148 955.460267L1118.985481 1023.992415 1083.031704 911.390341C1083.031704 911.390341 1085.345185 909.91123 1086.445037 909.228563 1175.191704 852.3776 1232.497778 762.834489 1232.497778 662.027378 1232.497778 490.185007 1065.927111 350.883081 860.48237 350.883081 654.999704 350.883081 488.391111 490.185007 488.391111 662.027378" fill="currentColor" p-id="3334"></path></svg>
