<?xml version="1.0" standalone="no"?><!DOCTYPE svg PUBLIC "-//W3C//DTD SVG 1.1//EN" "http://www.w3.org/Graphics/SVG/1.1/DTD/svg11.dtd"><svg t="1590327278186" class="icon" viewBox="0 0 1024 1024" version="1.1" xmlns="http://www.w3.org/2000/svg" p-id="1163" xmlns:xlink="http://www.w3.org/1999/xlink" width="48" height="48"><defs><style type="text/css"></style></defs><path d="M512.47 0L1024 204.43v68.14h-68.14q0 14-10.74 24.27t-25.67 9.33H105.48q-15.87 0-26.14-9.33-10.27-9.34-11.2-24.27H0v-68.14L512.47 0zM136.28 340.71H273.5V750.5h68.14V340.71h136.29V750.5h68.14V340.71h136.29V750.5h69.07V340.71h136.29V750.5h31.73q14 0 25.67 9.8 11.67 9.8 10.74 23.8v34.54H68.14V784.1q0-13.07 11.2-23.81 11.2-10.74 26.14-9.79h30.8V340.71zM987.6 853.18q14.93 0 25.66 10.74 10.74 10.74 10.74 23.81v68.14H0v-68.14q0-14.01 10.73-23.81 10.73-9.8 26.61-10.73H987.6z" fill="currentColor" p-id="1164"></path></svg>
