<?xml version="1.0" standalone="no"?><!DOCTYPE svg PUBLIC "-//W3C//DTD SVG 1.1//EN" "http://www.w3.org/Graphics/SVG/1.1/DTD/svg11.dtd"><svg t="1590938321355" class="icon" viewBox="0 0 1024 1024" version="1.1" xmlns="http://www.w3.org/2000/svg" p-id="2424" xmlns:xlink="http://www.w3.org/1999/xlink" width="48" height="48"><defs><style type="text/css"></style></defs><path d="M699.2 325.6L578.4 231.2c-7.2-5.6-19.2-7.2-27.2-4l-408 157.6c-8 3.2-15.2 12.8-15.2 21.6v488.8h-32c-17.6 0-32 14.4-32 32s14.4 32 32 32h600c8.8 0 16-7.2 16-16v-592c0-8.8-5.6-20-12.8-25.6zM492 710.4c0 8.8-7.2 17.6-15.2 20l-229.6 56c-8.8 2.4-15.2-3.2-15.2-12v-23.2c0-8.8 7.2-17.6 15.2-20l229.6-56c8.8-2.4 15.2 3.2 15.2 12v23.2z m-16-91.2l-229.6 56c-8.8 2.4-15.2-3.2-15.2-12V640c0-8.8 7.2-17.6 15.2-20l229.6-56c8.8-2.4 15.2 3.2 15.2 12v23.2c0.8 8.8-6.4 17.6-15.2 20z m16-130.4c0 8.8-7.2 17.6-15.2 20l-229.6 56c-8.8 2.4-15.2-3.2-15.2-12v-23.2c0-8.8 7.2-17.6 15.2-20l229.6-56c8.8-2.4 15.2 3.2 15.2 12v23.2z m468 440c0 16.8-14.4 31.2-32 31.2-3.2 0-5.6 0-8.8-0.8-1.6 0.8-4 0.8-5.6 0.8H791.2c-8.8 0-16-7.2-16-15.2V215.2c0-8.8-5.6-20-12.8-24.8l-70.4-51.2c-7.2-4.8-19.2-7.2-28-4l-299.2 76.8c-7.2 2.4-13.6 9.6-15.2 17.6v32c0 16.8-14.4 31.2-32 31.2s-32-13.6-32-31.2v-73.6c0-8.8 6.4-17.6 15.2-20.8L676 65.6c8-2.4 20.8-0.8 28 4l122.4 89.6c7.2 4.8 12.8 16 12.8 24.8v697.6c0 8.8 7.2 15.2 16 15.2h58.4c2.4 0 4 0 5.6 0.8 2.4-0.8 5.6-0.8 8-0.8 18.4 0.8 32.8 15.2 32.8 32z" fill="currentColor" p-id="2425"></path></svg>
