<?xml version="1.0" standalone="no"?><!DOCTYPE svg PUBLIC "-//W3C//DTD SVG 1.1//EN" "http://www.w3.org/Graphics/SVG/1.1/DTD/svg11.dtd"><svg t="1590898160070" class="icon" viewBox="0 0 1024 1024" version="1.1" xmlns="http://www.w3.org/2000/svg" p-id="4760" xmlns:xlink="http://www.w3.org/1999/xlink" width="48" height="48"><defs><style type="text/css"></style></defs><path d="M890.063 148.254h-43.952v-13.49c0-38.685-30.889-70.183-69.333-70.183h-1.034c-38.45 0-70.251 31.498-70.251 70.183v13.49H318.506v-13.49c0-38.685-30.743-70.183-69.192-70.183h-1.063c-38.449 0-70.362 31.498-70.362 70.183v13.49H135.06c-38.45 0-71.059 31.068-71.059 69.699v672.165c0 38.684 32.609 69.301 71.059 69.301h755.004c38.448 0 69.937-30.617 69.937-69.301V217.954c-0.002-38.631-31.49-69.7-69.938-69.7z m-156.679-13.49c0-23.25 19.204-42.292 42.359-42.292h1.034c23.122 0 41.441 19.043 41.441 42.292v125.06c0 23.247-18.32 41.831-41.441 41.831h-1.034c-23.155 0-42.359-18.584-42.359-41.831v-125.06z m-527.606 0c0-23.25 19.317-42.292 42.476-42.292h1.059c23.095 0 41.301 19.043 41.301 42.292v125.06c0 23.247-18.206 41.831-41.301 41.831h-1.059c-23.16 0-42.476-18.584-42.476-41.831v-125.06z m684.285 768.873H135.058c-7.582 0-14.115-5.957-14.115-13.519v-494.33h783.274v494.331c0 7.561-6.572 13.518-14.154 13.518zM223.21 496.892h128.996v62.755H223.21v-62.755z m225.453 0h127.834v62.755H448.663v-62.755z m224.29 0h126.672v62.755H672.953v-62.755zM223.21 625.888h128.996v61.593H223.21v-61.593z m225.453 0h127.834v61.593H448.663v-61.593z m224.29 0h126.672v61.593H672.953v-61.593zM223.21 751.398h128.996v65.079H223.21v-65.079z m225.453 0h127.834v65.079H448.663v-65.079z m224.29 0h126.672v65.079H672.953v-65.079z" fill="currentColor" p-id="4761"></path></svg>
