<?xml version="1.0" standalone="no"?><!DOCTYPE svg PUBLIC "-//W3C//DTD SVG 1.1//EN" "http://www.w3.org/Graphics/SVG/1.1/DTD/svg11.dtd"><svg t="1590891897183" class="icon" viewBox="0 0 1024 1024" version="1.1" xmlns="http://www.w3.org/2000/svg" p-id="928" xmlns:xlink="http://www.w3.org/1999/xlink" width="48" height="48"><defs><style type="text/css"></style></defs><path d="M912 217.142857q16 16 27.428571 43.428572t11.428572 50.285714v658.285714q0 22.857143-16 38.857143t-38.857143 16H128q-22.857143 0-38.857143-16t-16-38.857143V54.857143q0-22.857143 16-38.857143t38.857143-16h512q22.857143 0 50.285714 11.428571t43.428572 27.428572z m-253.714286-139.428571v214.857143h214.857143q-5.714286-16.571429-12.571428-23.428572l-178.857143-178.857143q-6.857143-6.857143-23.428572-12.571428z m219.428572 873.142857V365.714286h-237.714286q-22.857143 0-38.857143-16t-16-38.857143V73.142857H146.285714v877.714286h731.428572zM347.428571 438.857143q4.571429-6.285714 12-7.142857t13.714286 3.714285l29.142857 21.714286q6.285714 4.571429 7.142857 12t-3.714285 13.714286l-104 138.857143 104 138.857143q4.571429 6.285714 3.714285 13.714285t-7.142857 12l-29.142857 21.714286q-6.285714 4.571429-13.714286 3.714286t-12-7.142857l-129.142857-172q-8-10.857143 0-21.714286z m458.285715 172q8 10.857143 0 21.714286l-129.142857 172q-4.571429 6.285714-12 7.142857t-13.714286-3.714286l-29.142857-21.714286q-6.285714-4.571429-7.142857-12t3.714285-13.714285l104-138.857143-104-138.857143q-4.571429-6.285714-3.714285-13.714286t7.142857-12l29.142857-21.714286q6.285714-4.571429 13.714286-3.714285t12 7.142857z m-354.285715 263.428571q-7.428571-1.142857-11.714285-7.428571t-3.142857-13.714286l78.857142-474.857143q1.142857-7.428571 7.428572-11.714285t13.714286-3.142858l36 5.714286q7.428571 1.142857 11.714285 7.428572t3.142857 13.714285l-78.857142 474.857143q-1.142857 7.428571-7.428572 11.714286t-13.714286 3.142857z" fill="currentColor" p-id="929"></path></svg>
