<?xml version="1.0" standalone="no"?><!DOCTYPE svg PUBLIC "-//W3C//DTD SVG 1.1//EN" "http://www.w3.org/Graphics/SVG/1.1/DTD/svg11.dtd"><svg t="1590937307619" class="icon" viewBox="0 0 1024 1024" version="1.1" xmlns="http://www.w3.org/2000/svg" p-id="1180" xmlns:xlink="http://www.w3.org/1999/xlink" width="48" height="48"><defs><style type="text/css"></style></defs><path d="M102.4 102.0416A50.944 50.944 0 0 1 153.6 51.2h716.8c28.2624 0 51.2 22.784 51.2 50.8416v819.9168A50.944 50.944 0 0 1 870.4 972.8H153.6c-28.2624 0-51.2-22.784-51.2-50.8416V102.0416z m442.3168 199.3216c16.9472 0 36.1984-10.1376 45.7216-24.1664l50.5856-73.9328c7.2704-10.6496 8.448-22.9888 3.1744-32.9728-5.3248-10.0352-16.128-16.0256-29.0304-16.0256H408.6272c-12.8512 0-23.7056 5.9904-28.9792 16.0256-5.3248 9.984-4.096 22.3232 3.1232 32.9728l50.5856 73.9328c9.5744 14.0288 28.8256 24.1664 45.7216 24.1664h65.6384z m-60.928 534.1696c7.3216 7.8336 17.5616 12.288 28.16 12.288a38.7072 38.7072 0 0 0 28.0576-12.288L651.1616 716.8c11.9296-12.7488 17.1008-34.2016 12.1856-50.944L573.0304 380.416a46.8992 46.8992 0 0 0-43.6736-32.768h-37.888a46.8992 46.8992 0 0 0-43.6736 32.768L360.448 665.856c-4.864 16.7424 0.256 38.1952 12.1856 50.944l111.1552 118.784z" fill="currentColor" p-id="1181"></path></svg>
