<?xml version="1.0" standalone="no"?><!DOCTYPE svg PUBLIC "-//W3C//DTD SVG 1.1//EN" "http://www.w3.org/Graphics/SVG/1.1/DTD/svg11.dtd"><svg t="1590938078163" class="icon" viewBox="0 0 1024 1024" version="1.1" xmlns="http://www.w3.org/2000/svg" p-id="1227" xmlns:xlink="http://www.w3.org/1999/xlink" width="48" height="48"><defs><style type="text/css"></style></defs><path d="M972.361411 522.785647c-20.575618 14.470573-45.975101 27.52796-75.91397 38.969547-80.158644 30.630624-193.195094 49.593512-315.449486 53.92005-2.845815 6.639211-6.853082 12.55699-12.045337 17.74106-11.497868 11.483542-26.0237 17.228383-43.583634 17.228383-16.305361 0-30.258141-5.929036-41.85834-17.770736-5.067412-5.173836-9.027607-10.923794-11.881608-17.250895-0.844228-0.029676-1.684362-0.051165-2.529613-0.082888-170.358993-6.40692-311.064618-39.681768-386.039194-91.295286a244.431012 244.431012 0 0 1-4.387937-3.099595l-0.511653-0.399089v340.352665c0 44.774763 36.428677 81.20344 81.20344 81.20344h732.306568c44.775786 0 81.20344-36.428677 81.20344-81.20344V522.392698l-0.512676 0.392949z" fill="currentColor" p-id="1228"></path><path d="M117.877199 473.671043c64.672952 44.522006 196.833971 74.619488 353.530802 80.512708 1.302669 0.049119 2.602268 0.082888 3.903914 0.127914a58.793034 58.793034 0 0 1 8.670473-10.649548c11.916401-11.604292 26.127054-17.406438 42.644239-17.406438 16.717753 0 30.829146 5.92699 42.327014 17.769712a61.501726 61.501726 0 0 1 8.134261 10.393721c116.166743-3.89368 222.773759-21.487384 297.44339-50.019207 34.478256-13.175067 60.822251-28.151154 78.295204-44.511773 9.376555-8.778944 15.841803-17.625426 19.534915-26.714432l0.5137-1.231037V284.005332c0-44.776809-36.427654-81.20344-81.20344-81.20344h-126.132722v-98.448196c0-27.973098-20.594037-51.225685-47.41387-55.400774h-385.213385c-26.821879 4.175089-47.413869 27.426653-47.41387 55.400774v98.448196h-126.132722c-44.774763 0-81.20344 36.428677-81.20344 81.20344v139.733485l0.511653 2.016937c4.043083 16.678868 17.176195 32.750915 39.203884 47.915289z m259.261789-324.767711c0-8.010441 6.494924-14.503319 14.504342-14.503319h267.751137c8.009418 0 14.503319 6.493901 14.503318 14.503319v53.89856h-296.758797v-53.89856z" fill="currentColor" p-id="1229"></path></svg>
