<?xml version="1.0" standalone="no"?><!DOCTYPE svg PUBLIC "-//W3C//DTD SVG 1.1//EN" "http://www.w3.org/Graphics/SVG/1.1/DTD/svg11.dtd"><svg t="1590327555050" class="icon" viewBox="0 0 1024 1024" version="1.1" xmlns="http://www.w3.org/2000/svg" p-id="1168" xmlns:xlink="http://www.w3.org/1999/xlink" width="48" height="48"><defs><style type="text/css"></style></defs><path d="M512.673684 991.663158c-64.404211 0-127.056842-12.665263-185.936842-37.591579-56.858947-24.117895-107.924211-58.475789-151.848421-102.4-43.924211-43.789474-78.282105-94.989474-102.4-151.848421C47.696842 641.077895 35.031579 578.425263 35.031579 514.021053s12.665263-127.056842 37.591579-185.936842c24.117895-56.858947 58.475789-107.924211 102.4-151.848422s94.989474-78.282105 151.848421-102.4c58.88-24.926316 121.397895-37.591579 185.936842-37.591578s127.056842 12.665263 185.936842 37.591578c56.858947 24.117895 107.924211 58.475789 151.848421 102.4 43.924211 43.924211 78.282105 94.989474 102.4 151.848422 24.926316 58.88 37.591579 121.397895 37.591579 185.936842s-12.665263 127.056842-37.591579 185.936842c-24.117895 56.858947-58.475789 107.924211-102.4 151.848421-43.789474 43.924211-94.989474 78.282105-151.848421 102.4-59.014737 24.791579-121.667368 37.456842-186.071579 37.456842z m0-901.389474c-113.178947 0-219.621053 44.058947-299.654737 124.092632C132.985263 294.4 88.926316 400.842105 88.926316 514.021053s44.058947 219.621053 124.092631 299.654736c80.033684 80.033684 186.475789 124.092632 299.654737 124.092632s219.621053-44.058947 299.654737-124.092632S936.421053 627.2 936.421053 514.021053s-44.058947-219.621053-124.092632-299.654737C732.294737 134.332632 625.852632 90.273684 512.673684 90.273684z" fill="currentColor" p-id="1169"></path><path d="M533.827368 451.233684c11.587368-11.587368 30.315789-11.587368 41.903158 0 56.724211 56.858947 56.724211 148.884211 0 205.877895l-78.282105 78.282105-5.793684 5.524211a144.505263 144.505263 0 0 1-97.145263 37.052631c-38.534737 0-75.587368-15.225263-102.938948-42.576842-56.724211-56.858947-56.724211-148.884211 0-205.877895l26.004211-26.00421 2.829474-2.425263c12.261053-10.105263 30.450526-8.623158 40.96 3.368421 10.509474 11.991579 9.701053 30.046316-1.886316 40.96l-25.869474 26.00421-3.907368 4.176842c-29.911579 34.223158-28.16 85.692632 3.907368 117.894737 33.684211 33.684211 88.387368 33.684211 122.071579 0l78.282105-78.282105 3.907369-4.176842c29.911579-34.223158 28.16-85.692632-3.907369-117.894737-5.524211-5.524211-8.757895-13.069474-8.757894-20.88421 0-7.949474 3.098947-15.494737 8.623157-21.018948z" fill="currentColor" p-id="1170"></path><path d="M539.082105 282.273684c57.532632-51.873684 145.650526-49.717895 200.488421 4.985263 56.724211 56.858947 56.724211 148.884211 0 205.877895l-25.869473 25.869474-2.829474 2.425263c-12.395789 9.431579-29.911579 7.68-40.151579-4.042105-10.24-11.587368-9.835789-29.237895 1.077895-40.286316l26.00421-26.004211 3.907369-4.176842c29.911579-34.223158 28.16-85.692632-3.907369-117.894737-33.684211-33.684211-88.387368-33.684211-122.071579 0l-78.282105 78.282106-4.176842 4.581052c-13.608421 15.629474-21.018947 35.705263-20.884211 56.454737 0 23.174737 8.892632 44.867368 25.061053 61.03579 11.587368 11.587368 11.587368 30.315789 0 41.903158s-30.315789 11.587368-41.903158 0c-27.351579-27.216842-42.576842-64.269474-42.442105-102.938948 0-38.938947 15.090526-75.452632 42.442105-102.938947l78.282105-78.282105 5.254737-4.850527z" fill="currentColor" p-id="1171"></path></svg>
