<?xml version="1.0" standalone="no"?><!DOCTYPE svg PUBLIC "-//W3C//DTD SVG 1.1//EN" "http://www.w3.org/Graphics/SVG/1.1/DTD/svg11.dtd"><svg t="1590894435815" class="icon" viewBox="0 0 1147 1024" version="1.1" xmlns="http://www.w3.org/2000/svg" p-id="2721" xmlns:xlink="http://www.w3.org/1999/xlink" width="53.765625" height="48"><defs><style type="text/css"></style></defs><path d="M1064.925 0H81.912A81.912 81.912 0 0 0 0 81.912v655.3a81.912 81.912 0 0 0 81.912 81.912h409.594v122.884H286.71a40.988 40.988 0 0 0-40.956 40.957v40.956H901.1v-40.956a40.988 40.988 0 0 0-40.972-40.957H655.347V819.124h409.578a81.912 81.912 0 0 0 81.928-81.912v-655.3A81.912 81.912 0 0 0 1064.925 0zM532.462 737.227a40.972 40.972 0 1 1 81.881 0.032 40.972 40.972 0 0 1-81.88-0.032M81.912 81.912h983.012V655.3H81.912V81.912z" fill="currentColor" p-id="2722"></path></svg>
