<?xml version="1.0" standalone="no"?><!DOCTYPE svg PUBLIC "-//W3C//DTD SVG 1.1//EN" "http://www.w3.org/Graphics/SVG/1.1/DTD/svg11.dtd"><svg t="1590327308030" class="icon" viewBox="0 0 1024 1024" version="1.1" xmlns="http://www.w3.org/2000/svg" p-id="1139" xmlns:xlink="http://www.w3.org/1999/xlink" width="48" height="48"><defs><style type="text/css"></style></defs><path d="M474.0096 973.0048A15066.624 15066.624 0 0 0 346.624 790.528c-63.3344-91.136-105.1136-152.576-125.3888-184.32-29.1328-45.568-48.7424-83.8656-58.88-114.8928C152.2688 460.288 147.2 424.5504 147.2 384c0-65.8432 16.4864-126.6688 49.408-182.4256A371.7632 371.7632 0 0 1 329.6256 68.608 352.1024 352.1024 0 0 1 512 19.2c65.8432 0 126.6688 16.4864 182.4256 49.408a371.7632 371.7632 0 0 1 132.9664 133.0176 352.1024 352.1024 0 0 1 49.408 182.3744c0 40.5504-5.0688 76.288-15.2064 107.3664-10.1376 31.0272-29.7472 69.3248-58.88 114.944-20.2752 31.6416-62.0544 93.0816-125.44 184.32l-127.2832 182.3744c-8.8576 12.6464-21.504 18.9952-37.9904 18.9952s-29.1328-6.3488-37.9904-18.9952z m37.9904-436.992c41.7792 0 77.568-14.848 107.3664-44.6464 29.7472-29.7984 44.6464-65.536 44.6464-107.3664 0-41.7792-14.848-77.568-44.6464-107.3664A146.3808 146.3808 0 0 0 512 231.9872c-41.7792 0-77.568 14.848-107.3664 44.6464A146.3808 146.3808 0 0 0 359.9872 384c0 41.7792 14.848 77.568 44.6464 107.3664 29.7984 29.7472 65.536 44.6464 107.3664 44.6464z" fill="currentColor" p-id="1140"></path></svg>
