<?xml version="1.0" standalone="no"?><!DOCTYPE svg PUBLIC "-//W3C//DTD SVG 1.1//EN" "http://www.w3.org/Graphics/SVG/1.1/DTD/svg11.dtd"><svg t="1590893705147" class="icon" viewBox="0 0 1024 1024" version="1.1" xmlns="http://www.w3.org/2000/svg" p-id="1172" xmlns:xlink="http://www.w3.org/1999/xlink" width="48" height="48"><defs><style type="text/css"></style></defs><path d="M631.7586963 232.62411851c38.47205925 22.45214815 86.1677037 22.45214815 124.63976295 0 38.47205925-22.45214815 62.2592-63.59419259 62.2592-108.37712593s-23.78714075-86.04634075-62.2592-108.37712591c-38.47205925-22.45214815-86.1677037-22.45214815-124.63976295 0-38.47205925 22.45214815-62.2592 63.71555555-62.2592 108.37712591s23.78714075 86.04634075 62.2592 108.37712593z m332.65588148-11.04402962c-42.23431111-30.4621037-77.06548148 0-77.06548148 0-98.42536297 124.63976297-176.70447408 87.38133333-195.27300742 83.01226666-18.56853333-4.36906667-121.96977778-61.40965925-143.93647407-71.60414813-21.9666963-10.43721482-51.4578963-30.4621037-148.4269037-24.15122964-110.19757037 9.58767408-205.58885925 110.80438518-215.66198519 152.79597037-10.07312592 41.99158518 62.74465185 83.49771852 93.69220741 50.85108148 106.67804445-139.9314963 203.04023703-83.98317037 203.04023703-83.98317037s-64.44373333 118.45025185-135.07697778 250.73588149c-114.56663703 142.35875555-192.96711111 83.74044445-235.5655111 65.29327407-42.71976297-18.32580741-80.82773333 31.55437037-80.82773333 62.98737777s69.17688889 80.58500741 182.52989629 80.58500741 202.79751111-94.66311111 213.96290371-107.77031111c32.88936297 2.3058963 173.6704 99.15354075 191.63211851 115.53754074 17.96171852 16.26263703 87.98814815 173.54903703 93.81357037 183.37943704 5.82542222 9.8304 35.31662222 32.03982222 70.39051852 14.80628148 35.0738963-17.3549037 30.4621037-62.38056297 30.4621037-62.38056296s-62.2592-161.77682963-102.43034074-202.43342222c-40.2925037-40.77795555-163.59727408-119.42115555-163.59727407-119.42115555s87.5026963-161.29137778 109.22666667-198.67117038c214.56971852 55.58423703 315.66506667-115.78026667 315.66506667-115.78026668s35.55934815-43.32657778-6.5536-73.78868147z" fill="currentColor" p-id="1173"></path></svg>
