<?xml version="1.0" standalone="no"?><!DOCTYPE svg PUBLIC "-//W3C//DTD SVG 1.1//EN" "http://www.w3.org/Graphics/SVG/1.1/DTD/svg11.dtd"><svg t="1590894504086" class="icon" viewBox="0 0 1024 1024" version="1.1" xmlns="http://www.w3.org/2000/svg" p-id="1200" xmlns:xlink="http://www.w3.org/1999/xlink" width="48" height="48"><defs><style type="text/css"></style></defs><path d="M703.906 865.906L663.97 850.25l148.687-380.063c6.844-17.53-2.437-37.312-20.343-43.125L532.25 342.125c-16.688-5.438-34.688 3.188-40.875 19.594l-129.563 342.75-61.406-23.157 181.875-481.125c6.094-16.218 23.813-24.843 40.406-19.78L911.75 300.593c18.188 5.625 27.844 25.5 20.906 43.312L733.531 852.97c-4.687 11.718-17.906 17.531-29.625 12.937z" fill="currentColor" p-id="1201"></path><path d="M111.688 658.156a129.375 129.375 0 1 0 258.75 0 129.375 129.375 0 1 0-258.75 0zM485 802.906a129.375 129.375 0 1 0 258.75 0 129.375 129.375 0 1 0-258.75 0z" fill="currentColor" p-id="1202"></path><path d="M246.533 379.367l-104.1-260.7c-6.8-16.9 2.4-36 19.8-41.3l107.9-32.9c14.4-4.4 29.7 2.5 36 16.2l13.2 28.8c7.5 16.3-0.9 35.4-17.9 41l-73.7 24.3c-6.9 2.3-10.5 9.9-7.8 16.6l70.4 179.6c2.1 5.4-0.5 11.4-5.9 13.6l-37.9 14.8z" fill="currentColor" p-id="1203"></path><path d="M126.733 379.367a84.8 84.8 0 1 0 169.6 0 84.8 84.8 0 1 0-169.6 0z" fill="currentColor" p-id="1204"></path></svg>
