<?xml version="1.0" standalone="no"?><!DOCTYPE svg PUBLIC "-//W3C//DTD SVG 1.1//EN" "http://www.w3.org/Graphics/SVG/1.1/DTD/svg11.dtd"><svg t="1590894932500" class="icon" viewBox="0 0 1024 1024" version="1.1" xmlns="http://www.w3.org/2000/svg" p-id="1246" xmlns:xlink="http://www.w3.org/1999/xlink" width="48" height="48"><defs><style type="text/css"></style></defs><path d="M477.715 546.285v205.715q0 42.857-30 72.857t-72.857 30h-205.715q-42.857 0-72.857-30t-30-72.857v-377.143q0-55.715 21.697-106.34t58.66-87.59 87.59-58.66 106.34-21.697h34.285q13.928 0 24.107 10.178t10.178 24.107v68.572q0 13.928-10.178 24.107t-24.107 10.178h-34.285q-56.785 0-96.965 40.178t-40.178 96.965v17.143q0 21.428 15 36.428t36.428 15h120q42.857 0 72.857 30t30 72.857zM957.715 546.285v205.715q0 42.857-30 72.857t-72.857 30h-205.715q-42.857 0-72.857-30t-30-72.857v-377.143q0-55.715 21.697-106.34t58.66-87.59 87.59-58.66 106.34-21.697h34.285q13.928 0 24.107 10.178t10.178 24.107v68.572q0 13.928-10.178 24.107t-24.107 10.178h-34.285q-56.785 0-96.965 40.178t-40.178 96.965v17.143q0 21.428 15 36.428t36.428 15h120q42.857 0 72.857 30t30 72.857z" fill="currentColor" p-id="1247"></path></svg>
