<?xml version="1.0" standalone="no"?><!DOCTYPE svg PUBLIC "-//W3C//DTD SVG 1.1//EN" "http://www.w3.org/Graphics/SVG/1.1/DTD/svg11.dtd"><svg t="1590311912962" class="icon" viewBox="0 0 1092 1024" version="1.1" xmlns="http://www.w3.org/2000/svg" p-id="1234" xmlns:xlink="http://www.w3.org/1999/xlink" width="51.1875" height="48"><defs><style type="text/css"></style></defs><path d="M1082.142391 421.647059C1082.142391 421.647059 849.779175 644.223816 849.779175 644.223816 842.149055 651.545888 838.665739 662.090619 840.466637 672.422085 840.466637 672.422085 895.322934 986.678762 895.322934 986.678762 898.901034 1007.270607 882.266424 1024 863.380693 1024 858.380832 1024 853.238794 1022.815199 848.286325 1020.256028 848.286325 1020.256028 561.066813 871.871523 561.066813 871.871523 556.351304 869.430833 551.161875 868.222335 545.996142 868.222335 540.806712 868.222335 535.617283 869.430833 530.901774 871.871523 530.901774 871.871523 243.682262 1020.256028 243.682262 1020.256028 238.729793 1022.815199 233.587755 1024 228.61159 1024 209.725859 1024 193.067554 1007.270607 196.669349 986.678762 196.669349 986.678762 251.525646 672.422085 251.525646 672.422085 253.326544 662.090619 249.843228 651.545888 242.189412 644.223816 242.189412 644.223816 9.826197 421.647059 9.826197 421.647059-9.414975 403.235248 1.200844 371.127135 27.787783 367.335771 27.787783 367.335771 348.916306 321.483964 348.916306 321.483964 359.461037 319.967418 368.584007 313.451011 373.323212 304.04369 373.323212 304.04369 516.92112 18.103763 516.92112 18.103763 522.868822 6.279446 534.432482 0.35544 545.996142 0.35544 557.559802 0.35544 569.099765 6.279446 575.047468 18.103763 575.047468 18.103763 718.669072 304.04369 718.669072 304.04369 723.384581 313.451011 732.50755 319.967418 743.075977 321.483964 743.075977 321.483964 1064.180804 367.335771 1064.180804 367.335771 1090.767743 371.127135 1101.383562 403.235248 1082.142391 421.647059Z" fill="currentColor" p-id="1235"></path></svg>
