<?xml version="1.0" standalone="no"?><!DOCTYPE svg PUBLIC "-//W3C//DTD SVG 1.1//EN" "http://www.w3.org/Graphics/SVG/1.1/DTD/svg11.dtd"><svg t="1590893661555" class="icon" viewBox="0 0 1280 1024" version="1.1" xmlns="http://www.w3.org/2000/svg" p-id="1130" xmlns:xlink="http://www.w3.org/1999/xlink" width="60" height="48"><defs><style type="text/css"></style></defs><path d="M1248 416h-128v-128c0-17.6-14.4-32-32-32h-64c-17.6 0-32 14.4-32 32v128h-128c-17.6 0-32 14.4-32 32v64c0 17.6 14.4 32 32 32h128v128c0 17.6 14.4 32 32 32h64c17.6 0 32-14.4 32-32v-128h128c17.6 0 32-14.4 32-32v-64c0-17.6-14.4-32-32-32z m-800 96c141.4 0 256-114.6 256-256S589.4 0 448 0 192 114.6 192 256s114.6 256 256 256z m179.2 64h-33.4c-44.4 20.4-93.8 32-145.8 32s-101.2-11.6-145.8-32h-33.4C120.4 576 0 696.4 0 844.8V928c0 53 43 96 96 96h704c53 0 96-43 96-96v-83.2c0-148.4-120.4-268.8-268.8-268.8z" fill="currentColor" p-id="1131"></path></svg>
