<?xml version="1.0" standalone="no"?><!DOCTYPE svg PUBLIC "-//W3C//DTD SVG 1.1//EN" "http://www.w3.org/Graphics/SVG/1.1/DTD/svg11.dtd"><svg t="1590311805684" class="icon" viewBox="0 0 1024 1024" version="1.1" xmlns="http://www.w3.org/2000/svg" p-id="1837" xmlns:xlink="http://www.w3.org/1999/xlink" width="48" height="48"><defs><style type="text/css"></style></defs><path d="M831.8 616.6l47.8-125.2c8-21-7.4-43.4-30-43.4h-117c22-37.8 35.6-81.2 35.6-128v-0.6c78.4-15.6 128-38.2 128-63.4 0-26.6-54.6-50.2-140.2-66-18.4-65.6-54-131.6-81.2-165.6-19-23.8-51.8-31.2-79-17.6l-55.2 27.6c-18 9-39.2 9-57.2 0L428.2 6.8c-27.2-13.6-60-6.2-79 17.6-27 34-62.8 100-81.2 165.6-85.4 15.8-140 39.4-140 66 0 25.2 49.6 47.8 128 63.4v0.6c0 46.8 13.6 90.2 35.6 128H176.6c-23 0-38.4 23.4-29.4 44.6l51.6 120.4C118.6 659.6 64 745.4 64 844.8v89.6C64 983.8 104.2 1024 153.6 1024h716.8c49.4 0 89.6-40.2 89.6-89.6v-89.6c0-96.8-51.6-180.8-128.2-228.2zM416 960l-83.2-384 99.2 64 48 80-64 240z m192 0l-64-240 48-80 99.2-64L608 960z m83.4-597c-7.8 23.8-14 49.2-33 66.8-20.2 18.6-96 44.8-128-50-5.6-16.8-30.8-16.8-36.6 0-34 100.4-112 64.8-128 50-19-17.6-25.4-43-33-66.8-1.6-5-12.6-11.4-12.6-11.6v-21.6c56.6 7.2 122 11.6 192 11.6s135.4-4.2 192-11.6v21.6c-0.2 0.2-11.2 6.4-12.8 11.6z"  fill="currentColor" p-id="1838"></path></svg>
