<?xml version="1.0" standalone="no"?><!DOCTYPE svg PUBLIC "-//W3C//DTD SVG 1.1//EN" "http://www.w3.org/Graphics/SVG/1.1/DTD/svg11.dtd"><svg t="1589679256829" class="icon" viewBox="0 0 1024 1024" version="1.1" xmlns="http://www.w3.org/2000/svg" p-id="1799" width="48" height="48" xmlns:xlink="http://www.w3.org/1999/xlink"><defs><style type="text/css"></style></defs><path d="M945.031 540.997c-1.234-6.404-3.177-12.841-5.691-18.641l-0.157-0.368-0.173-0.348c-6.092-13.435-14.518-26.184-25.072-37.892-11.038-12.276-21.649-21.052-32.447-26.868-5.656-2.944-11.337-5.252-17.885-7.293a93.713 93.713 0 0 0-23.254-3.974 82.726 82.726 0 0 0-3.125-0.064c-8.127 0-16.338 1.261-24.419 3.767-9.476 2.918-18.598 7.855-27.064 14.637l-0.511 0.41-0.497 0.425c-4.165 3.536-8.975 7.957-14.322 13.127-4.812 4.7-8.889 8.587-12.313 11.827l-3.532 3.37-0.121-0.119-2.577 2.668-27.252 25.866 1.082 1.11-2.189 2.275-95.407 98.397-35.954 37.085-32.383 33.422c-9.936 10.226-18.257 18.851-24.895 25.914l-10.682 11.213-1.5 1.578c-6.183 6.362-11.186 12.573-15.048 18.728-3.178 4.999-6.152 10.637-8.74 16.642-2.488 5.024-4.898 11.326-7.823 20.372-2.503 7.692-5.091 16.204-7.762 25.471-2.54 8.809-4.944 17.32-7.228 25.59-2.928 10.803-4.59 18.356-5.456 24.685-3.027 20.246 0.783 37.73 11.398 51.368 6.361 8 20.254 20.76 45.186 20.76 3.098 0 6.35-0.19 9.69-0.566l0.893-0.102 0.893-0.152c5.315-0.846 12.073-2.404 21.894-5.04 8.352-2.253 17.237-4.948 27.173-8.231a743.564 743.564 0 0 0 26.75-9.514c9.204-3.542 16.207-6.546 21.606-9.23 7.087-3.294 13.903-7.53 20.26-12.613 4.249-3.327 8.153-6.62 11.675-9.872 2.985-2.539 6.591-6.14 13.679-13.396a11847.12 11847.12 0 0 0 23.797-24.776c8.609-9.073 18.554-19.256 31.397-32.2l0.266-0.264 0.257-0.281 35.515-37.039 95.26-98.254 30.79-31.746-0.104-0.102 0.354-0.317a195.74 195.74 0 0 0 8.796-8.469c1.888-1.951 4.12-4.177 6.675-6.685a733.76 733.76 0 0 0 10.27-10.351l0.653-0.662 0.612-0.685c7.004-7.855 12.303-16.549 15.737-25.85 3.366-8.981 5.102-18.447 5.102-27.966-0.001-7.106-0.697-14.103-2.077-20.777z m-203.096 200.22L706.42 778.25c-11.802 11.897-22.459 22.787-31.934 32.765a8339.834 8339.834 0 0 1-23.51 24.464c-6.235 6.393-9.931 10.086-11.112 10.937-2.937 2.783-6.35 5.667-10.202 8.685-3.83 3.063-7.824 5.526-11.974 7.403-4.16 2.107-10.202 4.69-18.184 7.768a730.296 730.296 0 0 1-25.072 8.916c-8.724 2.889-17.019 5.422-24.863 7.534-7.84 2.11-13.674 3.5-17.542 4.12-1.735 0.205-3.34 0.292-4.818 0.292-5.337 0-9.058-1.3-11.148-3.93-2.655-3.413-3.392-9.025-2.217-16.932 0.586-4.28 2.002-10.464 4.203-18.582 2.242-8.103 4.59-16.437 7.104-25.127 2.514-8.733 4.943-16.744 7.316-24.042 2.374-7.327 4.29-12.367 5.782-15.11 1.766-4.26 3.768-8.158 6-11.656 2.195-3.504 5.393-7.39 9.527-11.654 1.788-1.87 5.939-6.194 12.445-13.057 6.49-6.911 14.63-15.347 24.408-25.406l32.383-33.412 35.945-37.089 95.406-98.404 83.003 86.054-95.431 98.428z m159.313-167.545c-1.474 3.982-3.832 7.778-7.104 11.44-3.533 3.648-6.726 6.824-9.544 9.616a467.696 467.696 0 0 0-7.312 7.325c-2.357 2.415-4.589 4.572-6.639 6.4l-83.004-85.584c3.554-3.37 7.788-7.396 12.648-12.146 4.882-4.732 8.959-8.453 12.215-11.223 4.13-3.31 8.436-5.709 12.858-7.078 4.014-1.246 7.98-1.86 11.86-1.86 0.407 0 0.819 0 1.233 0.016 4.276 0.188 8.435 0.846 12.418 2.054 4.003 1.25 7.47 2.62 10.421 4.157 6.235 3.357 13.12 9.202 20.662 17.584 7.557 8.393 13.364 17.17 17.53 26.34 1.191 2.76 2.143 5.95 2.853 9.618 0.752 3.66 1.124 7.455 1.124 11.445 0.003 3.949-0.719 7.91-2.219 11.896z m0 0" fill="currentColor" p-id="1800"></path><path d="M376.845 887.09H192.512c-31.669 0-57.437-26.575-57.437-59.24V196.127c0-32.658 25.768-59.218 57.437-59.218h612.482c31.663 0 57.415 26.56 57.415 59.218v160.797c0 16.571 13.035 30.005 29.096 30.005 16.067 0 29.097-13.432 29.097-30.005V196.132c0-65.745-51.868-119.239-115.607-119.239H192.512c-63.754 0-115.619 53.494-115.619 119.239v631.72c0 65.752 51.865 119.255 115.619 119.255h184.333c16.067 0 29.096-13.44 29.096-30.01s-13.03-30.006-29.096-30.006z m0 0" fill="currentColor" p-id="1801"></path><path d="M729.637 272.73c0-16.572-13.035-30.006-29.097-30.006H285.958c-16.067 0-29.097 13.433-29.097 30.006 0 16.577 13.03 30.01 29.097 30.01H700.54c16.062 0 29.097-13.433 29.097-30.01z m0 0M285.959 401.058c-16.067 0-29.097 13.433-29.097 30 0 16.576 13.03 30.01 29.097 30.01h286.07c16.07 0 29.096-13.433 29.096-30.01 0-16.567-13.026-30-29.097-30h-286.07z m0 0M448.387 570.317H285.96c-16.067 0-29.097 13.433-29.097 30 0 16.577 13.03 30.01 29.097 30.01h162.428c16.066 0 29.092-13.433 29.092-30.01 0-16.566-13.026-30-29.092-30z m0 0" fill="currentColor" p-id="1802"></path></svg>
