<?xml version="1.0" standalone="no"?><!DOCTYPE svg PUBLIC "-//W3C//DTD SVG 1.1//EN" "http://www.w3.org/Graphics/SVG/1.1/DTD/svg11.dtd"><svg t="1592313587310" class="icon" viewBox="0 0 1024 1024" version="1.1" xmlns="http://www.w3.org/2000/svg" p-id="3340" xmlns:xlink="http://www.w3.org/1999/xlink" width="48" height="48"><defs><style type="text/css"></style></defs><path d="M994.133333 179.2c-17.066667-17.066667-42.666667-17.066667-59.733333 0L362.666667 750.933333l-273.066667-273.066667c-17.066667-17.066667-42.666667-17.066667-59.733333 0-17.066667 17.066667-17.066667 42.666667 0 59.733333l298.666667 298.666667c0 0 0 4.266667 4.266667 4.266667 17.066667 17.066667 42.666667 17.066667 59.733333 0l0 0c0 0 0 0 0 0s0 0 0 0L994.133333 238.933333C1011.2 221.866667 1011.2 196.266667 994.133333 179.2z" fill="currentColor" p-id="3341"></path></svg>
