<?xml version="1.0" standalone="no"?><!DOCTYPE svg PUBLIC "-//W3C//DTD SVG 1.1//EN" "http://www.w3.org/Graphics/SVG/1.1/DTD/svg11.dtd"><svg t="1589706378821" class="icon" viewBox="0 0 1024 1024" version="1.1" xmlns="http://www.w3.org/2000/svg" p-id="1149" xmlns:xlink="http://www.w3.org/1999/xlink" width="48" height="48"><defs><style type="text/css"></style></defs><path d="M834.526 227.703c-44.578-65.877-111.65-110.148-188.86-124.586a28.092 28.092 0 0 0-32.631 22.972 28.535 28.535 0 0 0 22.528 33.245 235.964 235.964 0 0 1 152.849 100.83 245.043 245.043 0 0 1 38.195 181.59 28.57 28.57 0 0 0 27.58 33.723 28.194 28.194 0 0 0 27.511-23.45 302.558 302.558 0 0 0-47.172-224.324z m-208.862 46.149c62.464 11.673 103.902 72.977 92.467 136.67a28.535 28.535 0 0 0 27.614 33.757 28.16 28.16 0 0 0 27.512-23.45c17.032-94.685-44.647-185.821-137.455-203.195a28.092 28.092 0 0 0-32.632 22.972 28.535 28.535 0 0 0 22.528 33.246z m-35.43 89.6c10.854 2.048 20.309 8.26 26.555 17.544 6.28 9.25 8.636 20.48 6.656 31.574a28.535 28.535 0 0 0 27.58 33.792 28.194 28.194 0 0 0 27.546-23.484 100.352 100.352 0 0 0-15.633-74.377 96.666 96.666 0 0 0-62.6-41.301 28.058 28.058 0 0 0-32.632 23.006 28.535 28.535 0 0 0 22.528 33.246z m94.89 278.494c-56.934 24.337-41.062 110.762-114.142 115.78-42.564 3.072-272.827-254.635-273.885-301.363-1.502-71.032 57.173-76.527 91.374-92.74 41.302-19.525-41.3-231.834-114.176-231.834-72.908 0-131.788 41.028-136.942 208.554 0 344.133 405.674 601.43 547.771 579.687 109.022-16.657 171.179-77.824 182.545-139.06 11.4-61.166-139.298-157.661-182.545-139.024z" fill="currentColor" p-id="1150"></path></svg>
