<?xml version="1.0" standalone="no"?><!DOCTYPE svg PUBLIC "-//W3C//DTD SVG 1.1//EN" "http://www.w3.org/Graphics/SVG/1.1/DTD/svg11.dtd"><svg t="1589679335809" class="icon" viewBox="0 0 1024 1024" version="1.1" xmlns="http://www.w3.org/2000/svg" p-id="1143" width="48" height="48" xmlns:xlink="http://www.w3.org/1999/xlink"><defs><style type="text/css"></style></defs><path d="M661.8112 153.6h103.5776c36.5056 0 49.7664 3.7888 63.0784 10.9568 13.3632 7.168 23.8592 17.6128 30.976 30.976 7.168 13.312 10.9568 26.5728 10.9568 63.0784v103.5776c0 36.5056-3.7888 49.7664-10.9568 63.0784-7.168 13.3632-17.6128 23.8592-30.976 30.976-13.312 7.168-26.5728 10.9568-63.0784 10.9568h-103.5776c-36.5056 0-49.7664-3.7888-63.0784-10.9568a74.4448 74.4448 0 0 1-30.976-30.976c-7.168-13.312-10.9568-26.5728-10.9568-63.0784V258.56c0-36.5056 3.7888-49.7664 10.9568-63.0784 7.168-13.3632 17.6128-23.8592 30.976-30.976 13.312-7.168 26.5728-10.9568 63.0784-10.9568z m0 403.2h103.5776c36.5056 0 49.7664 3.7888 63.0784 10.9568 13.3632 7.168 23.8592 17.6128 30.976 30.976 7.168 13.312 10.9568 26.5728 10.9568 63.0784v103.5776c0 36.5056-3.7888 49.7664-10.9568 63.0784-7.168 13.3632-17.6128 23.8592-30.976 30.976-13.312 7.168-26.5728 10.9568-63.0784 10.9568h-103.5776c-36.5056 0-49.7664-3.7888-63.0784-10.9568a74.4448 74.4448 0 0 1-30.976-30.976c-7.168-13.312-10.9568-26.5728-10.9568-63.0784v-103.5776c0-36.5056 3.7888-49.7664 10.9568-63.0784 7.168-13.3632 17.6128-23.8592 30.976-30.976 13.312-7.168 26.5728-10.9568 63.0784-10.9568zM258.6112 153.6h103.5776c36.5056 0 49.7664 3.7888 63.0784 10.9568 13.3632 7.168 23.8592 17.6128 30.976 30.976 7.168 13.312 10.9568 26.5728 10.9568 63.0784v103.5776c0 36.5056-3.7888 49.7664-10.9568 63.0784-7.168 13.3632-17.6128 23.8592-30.976 30.976-13.312 7.168-26.5728 10.9568-63.0784 10.9568H258.56c-36.5056 0-49.7664-3.7888-63.0784-10.9568a74.4448 74.4448 0 0 1-30.976-30.976C157.3888 411.9552 153.6 398.6944 153.6 362.1888V258.56c0-36.5056 3.7888-49.7664 10.9568-63.0784 7.168-13.3632 17.6128-23.8592 30.976-30.976 13.312-7.168 26.5728-10.9568 63.0784-10.9568z m0 403.2h103.5776c36.5056 0 49.7664 3.7888 63.0784 10.9568 13.3632 7.168 23.8592 17.6128 30.976 30.976 7.168 13.312 10.9568 26.5728 10.9568 63.0784v103.5776c0 36.5056-3.7888 49.7664-10.9568 63.0784-7.168 13.3632-17.6128 23.8592-30.976 30.976-13.312 7.168-26.5728 10.9568-63.0784 10.9568H258.56c-36.5056 0-49.7664-3.7888-63.0784-10.9568a74.4448 74.4448 0 0 1-30.976-30.976c-7.168-13.312-10.9568-26.5728-10.9568-63.0784v-103.5776c0-36.5056 3.7888-49.7664 10.9568-63.0784 7.168-13.3632 17.6128-23.8592 30.976-30.976 13.312-7.168 26.5728-10.9568 63.0784-10.9568z" fill="currentColor" p-id="1144"></path></svg>
