<svg t="1595258935904" class="icon" viewBox="0 0 1024 1024" version="1.1" xmlns="http://www.w3.org/2000/svg" p-id="3860" width="48" height="48"><path d="M512 64c-219.1 0-384.3 90-384.3 209.4 0 4.2 0.9 489 1 490C138.7 882.8 289.1 960 512 960s373.3-77.2 383.3-197.6c0 0 1-484.8 1-489C896.3 154 731.1 64 512 64z m300.5 696.9C791.3 814 665.3 872.4 505.2 872.4c-160.1 0-286.1-58.4-307.3-111.5v-123c84.8 46.7 178.6 72.2 307.3 72.2s243.7-25.5 307.3-72.2v123z m0-249.9c-21.2 53.1-147.3 111.5-307.3 111.5-159.9 0-286.1-58.5-307.3-111.5V405.1c84.8 49.6 183.4 77.6 307.3 77.6s243.7-28 307.3-77.6V511zM512 395.1c-186.2 0-305.1-72.1-305.1-121.7 0-49.6 118.8-121.7 305.1-121.7 186.2 0 305.1 72.1 305.1 121.7 0 49.6-118.9 121.7-305.1 121.7z" fill="currentColor" p-id="3861"></path></svg>
