<?xml version="1.0" standalone="no"?><!DOCTYPE svg PUBLIC "-//W3C//DTD SVG 1.1//EN" "http://www.w3.org/Graphics/SVG/1.1/DTD/svg11.dtd"><svg t="1589680927990" class="icon" viewBox="0 0 1024 1024" version="1.1" xmlns="http://www.w3.org/2000/svg" p-id="1156" xmlns:xlink="http://www.w3.org/1999/xlink" width="48" height="48"><defs><style type="text/css"></style></defs><path d="M972.8 330.9568v197.5808H51.2V330.9568c0-22.528 8.0384-42.0352 24.064-58.0608 16.128-16.128 35.4816-24.064 58.0608-24.064H314.368V166.4a47.104 47.104 0 0 1 14.3872-34.9184 47.4624 47.4624 0 0 1 34.9184-14.336h296.2944a47.104 47.104 0 0 1 34.9184 14.336 47.4624 47.4624 0 0 1 14.3872 34.9184V248.832h180.992c22.528 0 42.0352 8.192 58.0608 24.064 16.4864 16.0256 24.5248 35.328 24.5248 58.0608z m0 246.784v246.9888c0 22.528-8.192 41.984-24.064 58.0608-16.128 16.128-35.4816 24.064-58.0608 24.064H133.5808a79.36 79.36 0 0 1-58.0608-24.064 79.2064 79.2064 0 0 1-24.2176-58.0608v-246.9888H396.8v82.3296c0 8.9088 3.2256 16.5888 9.7792 23.1936a31.4368 31.4368 0 0 0 23.1424 9.728h164.5056a31.6416 31.6416 0 0 0 23.1936-9.728 31.4368 31.4368 0 0 0 9.7792-23.1936v-82.3296H972.8zM380.416 248.576h263.2704V182.6816H380.416v65.8944z m197.4784 329.1648v65.8944H446.1056v-65.8944h131.7888z" fill="currentColor" p-id="1157"></path></svg>
